<svg xmlns="http://www.w3.org/2000/svg" xmlns:xlink="http://www.w3.org/1999/xlink" aria-hidden="true" role="img" class="iconify iconify--logos" width="35.93" height="32" preserveAspectRatio="xMidYMid meet" viewBox="0 0 256 228"><path fill="#00D8FF" d="M210.483 73.824a171.49 171.49 0 0 0-8.24-2.597c.465-1.9.893-3.777 1.273-5.621c6.238-30.281 2.16-54.676-11.769-62.708c-13.355-7.7-35.196.329-57.254 19.526a171.23 171.23 0 0 0-6.375 5.848a155.866 155.866 0 0 0-4.241-3.917C100.759 3.829 77.587-4.822 63.673 3.233C50.33 10.957 46.379 33.89 51.995 62.588a170.974 170.974 0 0 0 1.892 8.48c-3.28.932-6.445 1.924-9.474 2.98C17.309 83.498 0 98.307 0 113.668c0 15.865 18.582 31.778 46.812 41.427a145.52 145.52 0 0 0 6.921 2.165a167.467 167.467 0 0 0-2.01 9.138c-5.354 28.2-1.173 50.591 12.134 58.266c13.744 7.926 36.812-.22 59.273-19.855a145.567 145.567 0 0 0 5.342-4.923a168.064 168.064 0 0 0 6.92 6.314c21.758 18.722 43.246 26.282 56.54 18.586c13.731-7.949 18.194-32.003 12.4-61.268a145.016 145.016 0 0 0-1.535-6.842c1.62-.48 3.21-.994 4.76-1.54c29.348-10.345 48.443-25.89 48.443-41.78c0-15.476-18.017-30.405-45.617-40.685Zm-6.282 82.563c-1.396.464-2.825.905-4.281 1.327a227.007 227.007 0 0 0-5.9-18.488a228.617 228.617 0 0 0 5.59-18.009c2.953.762 5.82 1.574 8.569 2.442c24.684 7.793 40.068 19.39 40.068 29.965c0 11.167-16.454 23.436-42.646 31.206c-.44.13-.879.254-1.3.557Zm-22.717 52.685c-6.08 3.513-18.55-.535-32.858-12.263a158.973 158.973 0 0 1-6.29-5.709a228.32 228.32 0 0 0 12.092-14.97a228.85 228.85 0 0 0 19.1-2.27c.487 2.106.936 4.171 1.335 6.177c4.91 24.592 1.603 44.355-6.379 48.478c-.083.048-.163.09-.243.557ZM109.47 195.29c-20.4 17.6-39.62 24.72-48.5 19.61c-9.35-5.38-12.35-26.05-7.05-52.32c.57-2.855 1.22-5.755 1.935-8.68a230.11 230.11 0 0 0 18.98 2.12a228.67 228.67 0 0 0 12.15 15.1c-1.82 1.67-3.66 3.29-5.52 4.85c-2.46 2.07-4.98 4.02-7.55 5.85c4.22.26 8.44.34 12.66.24c4.21-.1 8.42-.36 12.61-.78c4.19-.42 8.37-1 12.52-1.73c4.14-.73 8.25-1.62 12.32-2.66c-1.12.68-2.24 1.35-3.37 2c-6.69 3.86-13.59 7.3-20.65 10.28c-7.05 2.99-14.25 5.56-21.53 7.69c7.38.22 14.81.01 22.16-.62c7.34-.63 14.66-1.66 21.88-3.06c-3.1 2.31-6.3 4.48-9.58 6.5l.16-.13Z" /><path fill="#00D8FF" d="M127.88 143.99c-9.18 0-16.64-7.45-16.64-16.64c0-9.18 7.46-16.64 16.64-16.64c9.19 0 16.64 7.46 16.64 16.64c0 9.19-7.45 16.64-16.64 16.64Z" /></svg>
